<?xml version="1.0" encoding="UTF-8" standalone="no"?>
<!-- Created with Inkscape (http://www.inkscape.org/) -->

<svg
   width="28.523672mm"
   height="50mm"
   viewBox="0 0 28.523672 50"
   version="1.1"
   id="svg1"
   xmlns="http://www.w3.org/2000/svg"
   xmlns:svg="http://www.w3.org/2000/svg">
  <defs
     id="defs1" />
  <g
     id="layer1"
     transform="translate(-16.09231,-16.064484)">
    <g
       id="g2">
      <rect
         style="fill:#000000;fill-opacity:1;stroke:none;stroke-width:0;stroke-linecap:round;stroke-dasharray:none;paint-order:fill markers stroke"
         id="rect1"
         width="1.5"
         height="50"
         x="16.09231"
         y="16.064484"
         rx="0.60000002"
         ry="0" />
      <path
         id="rect2"
         style="fill:#ff0000;fill-opacity:1;stroke:#000000;stroke-width:0.8;stroke-linecap:round;paint-order:fill markers stroke"
         d="m 17.168622,16.643586 c 0,0 4.006219,1.50755 6.026892,1.35834 2.413685,-0.178232 4.80896,-1.323557 7.264695,-1.246396 2.822134,0.08867 5.419676,1.878642 8.242206,1.953653 1.584675,0.04211 4.679214,-0.849521 4.679214,-0.849521 0,0 -2.144277,2.378787 -3.184398,3.596032 -1.257637,1.471801 -3.694308,4.481377 -3.694308,4.481377 0,0 2.154442,2.631799 3.528944,4.183726 1.203305,1.358632 3.746351,2.817932 3.746351,2.817932 0,0 -2.853969,2.021834 -4.520211,2.348579 -2.876486,0.56407 -6.284709,-1.049509 -8.756702,-0.807044 -3.087228,0.302811 -4.411763,1.721883 -7.358237,1.839357 -2.089673,0.08331 -5.974446,-1.089056 -5.974446,-1.089056 z" />
    </g>
  </g>
</svg>
