<?xml version="1.0" encoding="UTF-8" standalone="no"?>
<svg
   width="605.04425"
   height="604.61865"
   viewBox="0 0 605.04425 604.61865"
   version="1.1"
   id="svg17"
   xmlns="http://www.w3.org/2000/svg"
   xmlns:svg="http://www.w3.org/2000/svg">
  <defs
     id="defs17" />
  <path
     id="17"
     d="m -209.44197,302.29713 c 0,0 0,-512 0,-512 0,0 512,0 512,0 0,0 512,0 512,0 0,0 0,512 0,512 0,0 0,512 0,512 0,0 -512,0 -512,0 0,0 -512,0 -512,0 0,0 0,-512 0,-512 m 543,300.537 c 69.546,-7.427 133.173,-37.807 182.245,-87.016 55.466,-55.621 86.148,-126.423 88.45,-204.112 1.896,-63.984 -14.453,-121.994 -49.355,-175.125 -11.312,-17.22 -22.155,-30.315 -39.233,-47.376997 -26.097,-26.073 -47.709,-41.664 -79.607,-57.432 -26.726,-13.211 -47.685,-20.475 -74.952,-25.9759994 -37.701,-7.606 -85.098,-7.162 -122.548,1.149 C 128.34103,31.403133 41.715029,113.40513 11.062029,222.29713 c -13.321,47.32 -14.021,104.265 -1.875,152.454 13.572,53.848 41.101,102.364 80.334,141.577 45.975001,45.952 106.149001,76.005 170.037001,84.923 18.426,2.572 19.774,2.664 42,2.861 10.459,0.093 24.368,-0.463 32,-1.278"
     stroke="#ffffff"
     fill="#ffffff"
     stroke-width="1" />
  <path
     id="19"
     d="m 278.55803,603.61113 c -2.475,-0.185 -11.025,-1.247 -19,-2.36 -84.666,-11.818 -161.090001,-60.198 -208.443001,-131.954 -20.312,-30.779 -33.155,-59.739 -41.928,-94.546 -7.999,-31.737 -10.7,-71.244 -7.154,-104.654 12.742,-120.057 97.513,-222.138997 213.525001,-257.130997 27.584,-8.3199994 49.304,-11.6579994 80.5,-12.36799941 51.601,-1.175 93.377,8.12800001 140,31.17399941 31.898,15.768 53.51,31.359 79.607,57.432 22.521,22.499997 37.888,42.757997 52.288,68.927997 34.901,63.426 45.341,139.179 29.138,211.424 -18.09,80.658 -71.568,152.781 -144.533,194.928 -35.622,20.576 -76.783,33.841 -119,38.35 -12.029,1.285 -42.461,1.714 -55,0.777 m 66.5,-15.136 c 69.625,-10.895 131.499,-45.27 176.913,-98.286 39.792,-46.454 62.921,-101.111 68.654,-162.246 1.683,-17.944 0.686,-52.302 -2.004,-69.071 -10.312,-64.278 -38.671,-118.907 -85.185,-164.101997 -43.574,-42.338 -98.576,-69.637 -159.378,-79.102 -17.167,-2.672 -64.649,-2.689 -82,-0.028 -59.204,9.079 -111.308,33.664 -153.5,72.429 C 50.818029,141.11913 17.944029,210.01113 13.640029,286.98913 c -3.402,60.839 12.891,121.389 46.499,172.808 45.766001,70.022 118.998001,117.092 199.919001,128.499 20.112,2.835 19.61,2.808 47,2.497 19.087,-0.217 28.075,-0.765 38,-2.318"
     stroke="#454b4d"
     fill="#454B4D"
     stroke-width="1"
     style="fill:#41014d;fill-opacity:1" />
  <path
     id="path1"
     d="m 196.94503,535.32813 c -14.273,-9.569 -14.746,-9.94 -16.224,-12.716 -0.806,-1.514 -0.862,-2.977 -0.181,-4.767 1.035,-2.721 5.375,-5.024 7.352,-3.9 0.641,0.365 7.579,4.908 15.416,10.096 13.485,8.927 14.25,9.607 14.25,12.689 0,3.834 -2.576,6.567 -6.191,6.567 -1.505,0 -7.359,-3.234 -14.422,-7.969"
     stroke="#454b4d"
     fill="#454b4d"
     stroke-width="1" />
  <path
     id="path2"
     d="m 278.05803,590.67313 c -48.905,-4.938 -89.973,-18.835 -130.138,-44.036 -53.341001,-33.468 -96.052001,-86.632 -117.723001,-146.534 -36.309,-100.363 -13.134,-215.199 59.089,-292.806 C 136.86103,56.176133 193.43603,26.163133 262.05803,15.640133 c 17.351,-2.661 64.833,-2.644 82,0.028 60.802,9.465 115.804,36.764 159.378,79.102 46.514,45.194997 74.873,99.823997 85.185,164.101997 2.69,16.769 3.687,51.127 2.004,69.071 -6.651,70.922 -36.986,133.623 -88.758,183.46 -36.351,34.992 -83.685,60.77 -133.139,72.506 -21.377,5.073 -34.878,6.58 -61.67,6.884 -13.75,0.156 -26.8,0.102 -29,-0.12 m 49.5,-20.376 c 1.1,-1.1 2,-3.125 2,-4.5 0,-4.873 -3.084,-6.5 -12.326,-6.5 -11.314,0 -28.102,-1.721 -40.174,-4.118 -8.566,-1.701 -28.846,-7.913 -39.074,-11.969 -4.234,-1.679 -8.26,-0.479 -9.521,2.837 -2.307,6.069 0.841,8.228 22.376,15.353 20.396,6.748 42.754,10.451 64.969,10.761 8.524,0.119 10.001,-0.115 11.75,-1.864 m -111.829,-28.655 c 1.058,-0.958 1.829,-3.027 1.829,-4.912 0,-3.082 -0.765,-3.762 -14.25,-12.689 -7.837,-5.188 -14.775,-9.731 -15.416,-10.096 -1.977,-1.124 -6.317,1.179 -7.352,3.9 -0.681,1.79 -0.625,3.253 0.181,4.767 1.478,2.776 1.951,3.147 16.224,12.716 12.27,8.226 15.48,9.304 18.784,6.314 m 131.43,-8.708 c 40.308,-6.399 69.968,-17.638 101.652,-38.52 11.475,-7.563 14.208,-10.404 15.838,-16.456 3.312,-12.3 -5.685,-24.661 -17.949,-24.661 -5.936,0 -18.563,-2.748 -25.411,-5.531 -7.852,-3.191 -18.447,-10.383 -23.838,-16.182 -4.332,-4.66 -23.22,-30.083 -33.725,-45.393 0,0 -5.218,-7.605 -5.218,-7.605 0,0 10.069,-10.161 10.069,-10.161 0,0 10.069,-10.161 10.069,-10.161 0,0 13.706,8.849 13.706,8.849 48.578,31.361 51.16,32.632 61.583,30.299 10.012,-2.241 17.705,-9.434 30.602,-28.615 14.267,-21.219 30.254,-58.14 35.073,-81 2.404,-11.405 3.209,-8.646 2.624,9 -0.619,18.675 -2.251,30.276 -6.619,47.055 -5.689,21.852 -15.479,44.209 -28.001,63.945 -3.49,5.5 -7.684,12.116 -9.321,14.703 -2.19,3.461 -2.805,5.384 -2.328,7.284 0.761,3.033 4.479,5.021 7.769,4.155 5.774,-1.521 26.585,-36.848 36.285,-61.596 25.754,-65.707 18.511,-144.902 -18.877,-206.398 -9.618,-15.82 -14.404,-21.791 -19.559,-24.398 -7.921,-4.007 -17.637,-2.066 -23.29,4.653 -3.021,3.591 -3.722,5.894 -6.678,21.948 -3.625,19.688 -11.366,32.651 -26.852,44.966 -7.855,6.246 -36.729,27.267 -43.369,31.573 0,0 -2.664,1.728 -2.664,1.728 0,0 -10.088,-10.18 -10.088,-10.18 0,0 -10.088,-10.18 -10.088,-10.18 0,0 15.329,-24.129 15.329,-24.129 24.427,-38.451 23.071,-35.932 23.508,-43.672 0.665,-11.764 -2.635,-18.215 -14.211,-27.791 -20.994,-17.366 -53.916,-34.225997 -83.122,-42.568997 -21.153,-6.043 -20.942,-5.609 -2.5,-5.112 18.868,0.509 29.899,2.107 48.909,7.085 25.368,6.643 50.313,18.555997 72.326,34.539997 7.389,5.365 9.754,5.901 12.765,2.89 4.855,-4.855 1.75,-8.721 -17,-21.162 -25.702,-17.053997 -58.135,-29.177997 -92.459,-34.561997 -15.311,-2.402 -49.619,-2.369 -65.541,0.063 -22.961,3.507 -46.127,10.229 -65.933,19.131 -17.368,7.806 -41.401,22.572997 -46.394,28.506997 -7.125,8.468 -5.394,22.87 3.453,28.725 2.9,1.919 5.917,2.744 12.594,3.441 20.493,2.141 38.227,10.856 49.962,24.554 6.123,7.147 31.908,42.563 35.643,48.956 0.395,0.676 -3.484,5.311 -9.371,11.198 0,0 -10.044,10.044 -10.044,10.044 0,0 -25.205,-16.104 -25.205,-16.104 -35.722,-22.823 -36.647,-23.298 -45.205,-23.259 -9.624,0.044 -15.407,3.145 -23.587,12.649 -19.04,22.122 -37.209001,58.692 -46.115001,92.819 -1.651,6.325 -3.239,11.725 -3.529,12 -1.068,1.011 0.656,-34.771 2.072,-43 5.55,-32.261 18.262001,-64.254 36.077001,-90.797 7.566,-11.272 9.017,-15.368 6.382,-18.003 -2.186,-2.186 -7.23,-1.407 -10.03,1.55 -5.074,5.358 -16.052,22.932 -22.692001,36.329 -18.197,36.713 -26.281,73.643 -24.719,112.921 0.965,24.277 5.222,47.112 13.236,71 7.561,22.538 29.905001,62.042 38.291001,67.7 6.935,4.679 17.026,3.949 23.456,-1.696 4.381,-3.846 6.254,-8.632 7.634,-19.504 2.428,-19.137 7.453,-29.958 19.509,-42.016 7.082,-7.083 13.96,-12.259 50.11,-37.716 0,0 4.094,-2.884 4.094,-2.884 0,0 10.119,10.119 10.119,10.119 0,0 10.119,10.12 10.119,10.12 0,0 -16.619,25.688 -16.619,25.688 -22.472,34.736 -21.57,33.008 -22.112,42.365 -0.769,13.285 3.338,19.81 20.428,32.448 22.786,16.851 50.385,30.104 79.876,38.357 8.25,2.309 15.45,4.347 16,4.529 2.473,0.82 -23.931,0.368 -32,-0.548 -23.481,-2.666 -50.906,-10.624 -72,-20.891 -6.6,-3.212 -18.476,-10.168 -26.391,-15.456 -7.915,-5.288 -15.304,-9.615 -16.421,-9.615 -5.932,0 -7.561,7.301 -2.62,11.742 6.708,6.029 24.25,16.828 39.432,24.275 27.29,13.386 50.732,19.986 83,23.368 7.905,0.829 41.186,-0.333 50.101,-1.748 m 179.235,-112.103 c 3.829,-4.361 9.916,-13.32 14.1,-20.752 3.565,-6.332 3.454,-8.825 -0.505,-11.419 -4.024,-2.637 -6.915,-1.085 -10.981,5.895 -2,3.433 -6.069,9.49 -9.043,13.46 -5.729,7.648 -6.798,11.749 -3.836,14.711 2.716,2.716 6.893,1.945 10.265,-1.895 m 24.625,-44.157 c 2.236,-0.858 4.739,-6.079 9.413,-19.633 7.319,-21.226 11.002,-42.175 11.403,-64.874 0.198,-11.201 0.007,-12.87 -1.682,-14.75 -2.218,-2.468 -5.293,-2.72 -8.216,-0.673 -1.863,1.305 -2.133,2.853 -2.745,15.75 -1.216,25.606 -4.743,43.327 -13.144,66.048 -2.47,6.679 -4.49,12.445 -4.49,12.814 0,0.369 0.933,1.857 2.073,3.306 2.055,2.613 4.258,3.213 7.388,2.012 m -507.461001,-49.377 c 1.725,-1.725 2.001,-3.34 2.008,-11.75 0.02,-23.402 4.932,-48.366 14.188,-72.105 0,0 4.038,-10.355 4.038,-10.355 0,0 -1.966,-2.645 -1.966,-2.645 -2.361,-3.176 -6.724,-3.947 -9.275,-1.638 -1.937,1.753 -7.348,15.645 -11.514,29.562 -4.844,16.182 -8.476,41.268 -8.478,58.546 -0.001,5.685 0.416,7.645 2.072,9.75 2.491,3.166 6.136,3.426 8.927,0.635 m 27.805,-111.75 c 3.326,-2.871 19.195,-27.276 19.195,-29.519 0,-3.186 -2.913,-5.731 -6.56,-5.731 -2.852,0 -3.863,0.827 -8.252,6.75 -7.507,10.131 -14.188,21.377 -14.188,23.881 0,2.25 4.219,6.369 6.524,6.369 0.69,0 2.166,-0.788 3.281,-1.75 M 422.72903,88.642133 c 2.956,-2.675 2.306,-6.719 -1.637,-10.181 -8.04,-7.059 -24.528,-17.164 -28.007,-17.164 -3.348,0 -5.527,2.562 -5.527,6.496 0,3.202 0.643,3.782 14.25,12.871 7.838,5.235 15.339,9.545 16.671,9.576 1.332,0.031 3.244,-0.688 4.25,-1.598 m -48.171,-28.345 c 2.553,-2.553 2.559,-6.401 0.014,-8.772 -2.886,-2.689 -25.661,-10.615 -39.014,-13.578 -16.234,-3.602 -27.407,-4.9 -43.322,-5.034 -12.601,-0.106 -13.948,0.055 -15.25,1.825 -2.007,2.729 -1.775,6.212 0.572,8.559 1.745,1.745 3.334,2 12.449,2 20.813,0 45.949,4.696 66.551,12.434 13.319,5.002 15.283,5.283 18,2.566"
     stroke="#ffffff"
     fill="#ffffff"
     stroke-width="1" />
  <path
     id="path3"
     d="m 297.05803,534.68213 c -32.268,-3.382 -55.71,-9.982 -83,-23.368 -15.182,-7.447 -32.724,-18.246 -39.432,-24.275 -4.941,-4.441 -3.312,-11.742 2.62,-11.742 1.117,0 8.506,4.327 16.421,9.615 7.915,5.288 19.791,12.244 26.391,15.456 21.094,10.267 48.519,18.225 72,20.891 8.069,0.916 34.473,1.368 32,0.548 -0.55,-0.182 -7.75,-2.22 -16,-4.529 -29.491,-8.253 -57.09,-21.506 -79.876,-38.357 -17.09,-12.638 -21.197,-19.163 -20.428,-32.448 0.542,-9.357 -0.36,-7.629 22.112,-42.365 0,0 16.619,-25.688 16.619,-25.688 0,0 -10.119,-10.12 -10.119,-10.12 0,0 -10.119,-10.119 -10.119,-10.119 0,0 -4.094,2.884 -4.094,2.884 -36.15,25.457 -43.028,30.633 -50.11,37.716 -12.056,12.058 -17.081,22.879 -19.509,42.016 -1.38,10.872 -3.253,15.658 -7.634,19.504 -6.43,5.645 -16.521,6.375 -23.456,1.696 -8.386,-5.658 -30.730001,-45.162 -38.291001,-67.7 -15.815,-47.141 -17.719,-95.18 -5.529,-139.5 6.582,-23.931 17.929,-49.294 30.421001,-68 8.72,-13.057 11.084,-15.5 15,-15.5 7.957,0 7.41,5.079 -2.069,19.203 -17.815,26.543 -30.527001,58.536 -36.077001,90.797 -1.416,8.229 -3.14,44.011 -2.072,43 0.29,-0.275 1.878,-5.675 3.529,-12 8.906,-34.127 27.075001,-70.697 46.115001,-92.819 8.18,-9.504 13.963,-12.605 23.587,-12.649 8.558,-0.039 9.483,0.436 45.205,23.259 0,0 25.205,16.104 25.205,16.104 0,0 10.044,-10.044 10.044,-10.044 5.887,-5.887 9.766,-10.522 9.371,-11.198 -3.735,-6.393 -29.52,-41.809 -35.643,-48.956 -11.735,-13.698 -29.469,-22.413 -49.962,-24.554 -6.677,-0.697 -9.694,-1.522 -12.594,-3.441 -8.847,-5.855 -10.578,-20.257 -3.453,-28.725 4.993,-5.934 29.026,-20.700997 46.394,-28.506997 19.806,-8.902 42.972,-15.624 65.933,-19.131 15.922,-2.432 50.23,-2.465 65.541,-0.063 34.324,5.384 66.757,17.508 92.459,34.561997 18.75,12.441 21.855,16.307 17,21.162 -3.011,3.011 -5.376,2.475 -12.765,-2.89 -22.013,-15.984 -46.958,-27.896997 -72.326,-34.539997 -19.01,-4.978 -30.041,-6.576 -48.909,-7.085 -18.442,-0.497 -18.653,-0.931 2.5,5.112 29.206,8.343 62.128,25.202997 83.122,42.568997 11.576,9.576 14.876,16.027 14.211,27.791 -0.437,7.74 0.919,5.221 -23.508,43.672 0,0 -15.329,24.129 -15.329,24.129 0,0 10.088,10.18 10.088,10.18 0,0 10.088,10.18 10.088,10.18 0,0 2.664,-1.728 2.664,-1.728 6.64,-4.306 35.514,-25.327 43.369,-31.573 15.486,-12.315 23.227,-25.278 26.852,-44.966 2.956,-16.054 3.657,-18.357 6.678,-21.948 5.653,-6.719 15.369,-8.66 23.29,-4.653 5.155,2.607 9.941,8.578 19.559,24.398 37.388,61.496 44.631,140.691 18.877,206.398 -9.7,24.748 -30.511,60.075 -36.285,61.596 -3.29,0.866 -7.008,-1.122 -7.769,-4.155 -0.477,-1.9 0.138,-3.823 2.328,-7.284 1.637,-2.587 5.831,-9.203 9.321,-14.703 12.522,-19.736 22.312,-42.093 28.001,-63.945 4.368,-16.779 6,-28.38 6.619,-47.055 0.585,-17.646 -0.22,-20.405 -2.624,-9 -4.819,22.86 -20.806,59.781 -35.073,81 -12.897,19.181 -20.59,26.374 -30.602,28.615 -10.423,2.333 -13.005,1.062 -61.583,-30.299 0,0 -13.706,-8.849 -13.706,-8.849 0,0 -10.069,10.161 -10.069,10.161 0,0 -10.069,10.161 -10.069,10.161 0,0 5.218,7.605 5.218,7.605 10.505,15.31 29.393,40.733 33.725,45.393 5.391,5.799 15.986,12.991 23.838,16.182 6.848,2.783 19.475,5.531 25.411,5.531 12.264,0 21.261,12.361 17.949,24.661 -1.63,6.052 -4.363,8.893 -15.838,16.456 -31.684,20.882 -61.344,32.121 -101.652,38.52 -8.915,1.415 -42.196,2.577 -50.101,1.748 m 91.12,-24.413 c 14.995,-5.101 38.721,-16.746 52.469,-25.752 10.598,-6.942 11.911,-8.346 11.911,-12.73 0,-3.905 -2.304,-5.084 -12.351,-6.319 -17.731,-2.179 -32.429,-8.437 -45.723,-19.469 -6.688,-5.55 -18.103,-19.906 -37.396,-47.029 -7.106,-9.989 -10.278,-13.687 -11.432,-13.325 -0.879,0.276 -4.414,1.679 -7.856,3.119 -11.674,4.885 -20.742,6.694 -34.242,6.832 -14.466,0.148 -23.617,-1.578 -37.294,-7.035 -4.837,-1.93 -8.937,-3.342 -9.111,-3.137 -3.685,4.339 -36.752,58.191 -37.201,60.586 -0.979,5.221 1.941,11.551 7.425,16.095 31.254,25.898 75.565,44.563 120.181,50.624 16.896,2.295 18.024,2.389 23.62,1.967 2.816,-0.212 10.466,-2.204 17,-4.427 m -251.702,-59.89 c 1.246,-1.246 2.13,-3.961 2.525,-7.75 2.361,-22.658 11.741,-42.077 27.141,-56.188 3.662,-3.355 17.2,-13.604 30.085,-22.775 12.885,-9.171 23.207,-17.169 22.938,-17.772 -7.205,-16.149 -9.897,-28.198 -9.852,-44.097 0.039,-13.891 1.78,-22.844 6.962,-35.798 1.936,-4.839 3.354,-8.932 3.151,-9.095 -1.576,-1.27 -53.517,-33.951 -56.506,-35.553 -4.806,-2.576 -9.93,-2.615 -14.041,-0.108 -7.689,4.688 -26.294,32.711 -36.061,54.316 -13.053001,28.873 -22.260001,67.418 -22.260001,93.191 0,15.186 12.467001,45.212 29.291001,70.547 8.712,13.119 12.239,15.47 16.627,11.082 m 319.15,-67.24 c 12.734,-7.157 35.684,-47.24 47.021,-82.123 6.188,-19.039 11.911,-51.354 11.911,-67.253 0,-13.997 -15.532,-49.157 -32.675,-73.966 -4.286,-6.203 -5.241,-7.034 -8.382,-7.299 -5.174,-0.436 -6.474,1.694 -8.344,13.653 -3.895,24.913 -13.432,42.042 -31.322,56.259 -4.162,3.307 -16.727,12.555 -27.922,20.551 -11.195,7.996 -20.355,14.639 -20.355,14.764 0,0.125 1.181,3.118 2.626,6.65 10.38,25.381 10.443,50.258 0.192,75.31 -1.55,3.788 -2.818,7.065 -2.818,7.282 0,0.504 18.422,12.528 41.414,27.03 19.685,12.416 21.69,13.056 28.654,9.142 m -132.068,-2.859 c 32.22,-9.056 55.037,-35.489 59.22,-68.606 6.457,-51.123 -38.428,-96.078 -89.47,-89.609 -25.666,3.253 -45.655,15.981 -59.273,37.744 -24.273,38.79 -10.973,90.658 28.974,112.998 18.073,10.107 41.076,12.946 60.549,7.473 m -57.187,-164.437 c 11.24,-4.653 22.466,-6.788 35.687,-6.787 14.08,0.001 24.202,1.9 36.444,6.836 6.737,2.717 8.711,3.159 9.635,2.161 2.109,-2.278 35.476,-54.77 36.459,-57.355 2.897,-7.62 -0.739,-13.786 -14.042,-23.807 -31.102,-23.429 -72.112,-39.764997 -113.462,-45.198997 -20.064,-2.637 -26.548,-2.336 -38.534,1.783 -20.946,7.198997 -45.114,19.441997 -59.983,30.387997 -5.276,3.884 -6.017,4.842 -6.017,7.777 0,4.93 2.253,6.243 13,7.574 19.376,2.4 36.281,10.467 49.457,23.6 6.968,6.945 18.849,22.531 37.963,49.802 2.629,3.75 5.297,6.599 5.93,6.33 0.633,-0.269 3.991,-1.666 7.463,-3.103"
     stroke="#454b4d"
     fill="#454b4d"
     stroke-width="1" />
  <path
     id="path4"
     d="m 426.97203,373.99713 c -22.992,-14.502 -41.414,-26.526 -41.414,-27.03 0,-0.217 1.268,-3.494 2.818,-7.282 10.251,-25.052 10.188,-49.929 -0.192,-75.31 -1.445,-3.532 -2.626,-6.525 -2.626,-6.65 0,-0.125 9.16,-6.768 20.355,-14.764 11.195,-7.996 23.76,-17.244 27.922,-20.551 17.89,-14.217 27.427,-31.346 31.322,-56.259 1.87,-11.959 3.17,-14.089 8.344,-13.653 3.141,0.265 4.096,1.096 8.382,7.299 17.143,24.809 32.675,59.969 32.675,73.966 0,15.899 -5.723,48.214 -11.911,67.253 -11.337,34.883 -34.287,74.966 -47.021,82.123 -6.964,3.914 -8.969,3.274 -28.654,-9.142"
     stroke="#ffffff"
     fill="#ffffff"
     stroke-width="1" />
  <path
     id="path5"
     d="m 288.05803,381.86313 c -9.271,-1.843 -17.419,-4.789 -25.049,-9.056 -39.947,-22.34 -53.247,-74.208 -28.974,-112.998 13.618,-21.763 33.607,-34.491 59.273,-37.744 26.585,-3.37 55.33,8.255 71.84,29.052 36.716,46.25 15.153,113.215 -41.59,129.163 -9.725,2.733 -26.053,3.461 -35.5,1.583 m 33.5,-21.546 c 18.264,-6.171 33.169,-21.08 39.06,-39.07 2.013,-6.147 2.44,-9.462 2.44,-18.95 0,-14.183 -2.509,-22.855 -9.739,-33.665 -6.208,-9.281 -13.197,-15.412 -23.261,-20.403 -24.552,-12.177 -51.595,-7.959 -70.561,11.007 -33.578,33.578 -18.082,89.536 28.277,102.11 9.612,2.607 24.352,2.158 33.784,-1.029"
     stroke="#ffffff"
     fill="#ffffff"
     stroke-width="1" />
  <path
     id="path6"
     d="m 362.55803,514.68713 c -1.925,-0.218 -8.675,-1.099 -15,-1.958 -44.616,-6.061 -88.927,-24.726 -120.181,-50.624 -5.484,-4.544 -8.404,-10.874 -7.425,-16.095 0.449,-2.395 33.516,-56.247 37.201,-60.586 0.174,-0.205 4.274,1.207 9.111,3.137 13.677,5.457 22.828,7.183 37.294,7.035 13.5,-0.138 22.568,-1.947 34.242,-6.832 3.442,-1.44 6.977,-2.843 7.856,-3.119 1.154,-0.362 4.326,3.336 11.432,13.325 19.293,27.123 30.708,41.479 37.396,47.029 13.294,11.032 27.992,17.29 45.723,19.469 5.389,0.662 10.163,1.784 10.952,2.573 1.492,1.492 1.823,4.99 0.738,7.816 -1.072,2.794 -20.673,15.022 -36.839,22.983 -23.843,11.742 -41.544,17.085 -52.5,15.847"
     stroke="#ffffff"
     fill="#ffffff"
     stroke-width="1" />
  <path
     id="path7"
     d="m 127.38103,449.54713 c -6.436,-6.937 -19.831,-29.312 -25.833,-43.151 -11.036001,-25.446 -12.404001,-33.757 -9.425001,-57.257 5.496,-43.347 22.025001,-85.037 46.089001,-116.246 4.119,-5.341 8.919,-10.584 10.667,-11.65 4.111,-2.507 9.235,-2.468 14.041,0.108 2.989,1.602 54.93,34.283 56.506,35.553 0.203,0.163 -1.215,4.256 -3.151,9.095 -5.182,12.954 -6.923,21.907 -6.962,35.798 -0.045,15.899 2.647,27.948 9.852,44.097 0.269,0.603 -10.053,8.601 -22.938,17.772 -12.885,9.171 -26.423,19.42 -30.085,22.775 -15.4,14.111 -24.78,33.53 -27.141,56.188 -0.978,9.381 -6.361,12.587 -11.62,6.918"
     stroke="#ffffff"
     fill="#ffffff"
     stroke-width="1" />
  <path
     id="path8"
     d="m 356.55803,57.731133 c -20.602,-7.738 -45.738,-12.434 -66.551,-12.434 -9.115,0 -10.704,-0.255 -12.449,-2 -2.347,-2.347 -2.579,-5.83 -0.572,-8.559 1.302,-1.77 2.649,-1.931 15.25,-1.825 15.915,0.134 27.088,1.432 43.322,5.034 13.353,2.963 36.128,10.889 39.014,13.578 2.545,2.371 2.539,6.219 -0.014,8.772 -2.717,2.717 -4.681,2.436 -18,-2.566"
     stroke="#454b4d"
     fill="#454b4d"
     stroke-width="1" />
  <path
     id="path9"
     d="m 287.77403,361.34613 c -32.683,-8.865 -51.68,-39.595 -44.737,-72.364 4.818,-22.737 23.469,-41.388 46.206,-46.206 13.94,-2.954 27.524,-1.139 40.815,5.453 10.064,4.991 17.053,11.122 23.261,20.403 7.23,10.81 9.739,19.482 9.739,33.665 0,9.488 -0.427,12.803 -2.44,18.95 -5.891,17.99 -20.796,32.899 -39.06,39.07 -9.432,3.187 -24.172,3.636 -33.784,1.029 m 27.249,-12.582 c 11.94,-3.11 23.141,-11.749 29.301,-22.6 14.42,-25.4 2.651,-58.569 -24.442,-68.886 -8.873,-3.379 -22.124,-3.844 -31.175,-1.095 -13.765,4.181 -26.082,15.546 -31.201,28.79 -3.359,8.691 -3.822,22.088 -1.075,31.131 3.63,11.95 12.882,23.322 23.543,28.938 9.405,4.954 24.262,6.532 35.049,3.722"
     stroke="#454b4d"
     fill="#454b4d"
     stroke-width="1" />
  <path
     id="path10"
     d="m 252.97803,212.61613 c -19.114,-27.271 -30.995,-42.857 -37.963,-49.802 -13.176,-13.133 -30.081,-21.2 -49.457,-23.6 -10.747,-1.331 -13,-2.644 -13,-7.574 0,-2.935 0.741,-3.893 6.017,-7.777 14.869,-10.946 39.037,-23.189 59.983,-30.387997 11.986,-4.119 18.47,-4.42 38.534,-1.783 41.35,5.434 82.36,21.769997 113.462,45.198997 13.303,10.021 16.939,16.187 14.042,23.807 -0.983,2.585 -34.35,55.077 -36.459,57.355 -0.924,0.998 -2.898,0.556 -9.635,-2.161 -12.242,-4.936 -22.364,-6.835 -36.444,-6.836 -15.671,-0.001 -24.806,2.093 -43.15,9.89 -0.633,0.269 -3.301,-2.58 -5.93,-6.33"
     stroke="#ffffff"
     fill="#ffffff"
     stroke-width="1" />
  <path
     id="path11"
     d="m 516.12903,422.72613 c -2.962,-2.962 -1.893,-7.063 3.836,-14.711 2.974,-3.97 7.043,-10.027 9.043,-13.46 4.066,-6.98 6.957,-8.532 10.981,-5.895 3.959,2.594 4.07,5.087 0.505,11.419 -4.184,7.432 -10.271,16.391 -14.1,20.752 -3.372,3.84 -7.549,4.611 -10.265,1.895"
     stroke="#454b4d"
     fill="#454b4d"
     stroke-width="1" />
  <path
     id="path12"
     d="m 543.63103,374.66213 c -1.14,-1.449 -2.073,-2.937 -2.073,-3.306 0,-0.369 2.02,-6.135 4.49,-12.814 8.401,-22.721 11.928,-40.442 13.144,-66.048 0.612,-12.897 0.882,-14.445 2.745,-15.75 2.923,-2.047 5.998,-1.795 8.216,0.673 3.56,3.961 1.872,33.515 -3.24,56.728 -2.584,11.734 -9.032,31.639 -12.366,38.174 -2.92,5.723 -7.486,6.703 -10.916,2.343"
     stroke="#454b4d"
     fill="#454b4d"
     stroke-width="1" />
  <path
     id="path13"
     d="m 401.80803,80.664133 c -13.607,-9.089 -14.25,-9.669 -14.25,-12.871 0,-6.958 4.926,-8.256 13.082,-3.447 15.784,9.307 23.918,16.074 23.918,19.9 0,3.323 -2.788,6.072 -6.079,5.994 -1.332,-0.031 -8.833,-4.341 -16.671,-9.576"
     stroke="#454b4d"
     fill="#454b4d"
     stroke-width="1" />
  <path
     id="path14"
     d="m 296.55803,571.13013 c -18.781,-1.769 -46.052,-8.644 -62.257,-15.697 -5.526,-2.405 -7.367,-5.365 -5.838,-9.386 1.261,-3.316 5.287,-4.516 9.521,-2.837 10.228,4.056 30.508,10.268 39.074,11.969 12.072,2.397 28.86,4.118 40.174,4.118 9.242,0 12.326,1.627 12.326,6.5 0,1.375 -0.9,3.4 -2,4.5 -1.749,1.749 -3.226,1.983 -11.75,1.864 -5.362,-0.075 -14.025,-0.539 -19.25,-1.031"
     stroke="#454b4d"
     fill="#454b4d"
     stroke-width="1" />
  <path
     id="path15"
     d="m 64.193029,215.22413 c -1.449,-1.14 -2.635,-3.073 -2.635,-4.296 0,-2.504 6.681,-13.75 14.188,-23.881 4.389,-5.923 5.4,-6.75 8.252,-6.75 3.647,0 6.56,2.545 6.56,5.731 0,2.243 -15.869,26.648 -19.195,29.519 -2.624,2.266 -3.956,2.205 -7.17,-0.323"
     stroke="#454b4d"
     fill="#454b4d"
     stroke-width="1" />
  <path
     id="path16"
     d="m 34.631029,326.66213 c -1.656,-2.105 -2.073,-4.065 -2.072,-9.75 0.002,-17.278 3.634,-42.364 8.478,-58.546 4.166,-13.917 9.577,-27.809 11.514,-29.562 2.551,-2.309 6.914,-1.538 9.275,1.638 0,0 1.966,2.645 1.966,2.645 0,0 -4.038,10.355 -4.038,10.355 -9.256,23.739 -14.168,48.703 -14.188,72.105 -0.007,8.41 -0.283,10.025 -2.008,11.75 -2.791,2.791 -6.436,2.531 -8.927,-0.635"
     stroke="#454b4d"
     fill="#454b4d"
     stroke-width="1" />
  <path
     id="path17"
     d="m 289.05803,348.41013 c -7.452,-2.166 -10.802,-3.913 -17.192,-8.964 -6.521,-5.155 -12.791,-14.636 -15.435,-23.342 -2.747,-9.043 -2.284,-22.44 1.075,-31.131 5.119,-13.244 17.436,-24.609 31.201,-28.79 9.051,-2.749 22.302,-2.284 31.175,1.095 27.093,10.317 38.862,43.486 24.442,68.886 -3.806,6.704 -11.998,14.852 -18.476,18.378 -10.564,5.75 -25.07,7.275 -36.79,3.868"
     stroke="#ffffff"
     fill="#ffffff"
     stroke-width="1" />
  <path
     style="fill:#4b0074;fill-opacity:1;stroke:#6400ba;stroke-width:0"
     d="M 264.41292,588.58266 C 231.51236,583.5164 204.26196,575.07756 175.9612,561.19112 87.969969,518.01614 27.790589,433.43215 15.747549,336.00585 c -1.85231,-14.9849 -1.57561,-54.39572 0.49087,-69.91611 7.0636,-53.05143 28.89507,-104.05419 62.18161,-145.26886 18.28294,-22.637547 51.261521,-51.358477 75.899831,-66.100907 35.95677,-21.51488 78.30502,-35.59504 118.74308,-39.48029 17.99917,-1.72935 62.94806,-0.57431 76.86149,1.97509 79.8583,14.63266 148.79936,59.9128 194.0771,127.468877 23.70122,35.36311 41.37127,84.88394 45.38273,127.18647 5.24637,55.32518 -3.98008,107.93423 -27.31972,155.77658 -40.73158,83.49287 -119.87762,143.23986 -210.86339,159.17979 -19.05467,3.33823 -69.84063,4.36589 -86.78823,1.75617 z m 64.34075,-17.50496 c 0.85573,-1.0311 1.55588,-3.32628 1.55588,-5.1004 0,-6.06425 -2.63022,-7.13259 -20.10017,-8.16427 -21.88875,-1.29263 -35.63057,-3.86241 -56.37664,-10.54266 -9.64927,-3.10707 -19.03286,-5.47521 -20.85242,-5.26251 -2.02415,0.2366 -4.02095,1.66228 -5.14432,3.67295 -3.04329,5.44705 0.24209,8.79976 13.23088,13.50206 24.41155,8.83767 48.65579,13.45739 71.62833,13.64875 11.4906,0.0957 14.82571,-0.26855 16.05846,-1.75392 z M 217.50609,537.02606 c 0.36533,-3.63906 -0.4012,-4.36511 -14.77538,-13.9952 -11.82073,-7.9194 -15.81326,-9.99326 -18.12277,-9.41361 -4.04741,1.01585 -6.16347,5.18843 -4.49182,8.85729 1.50604,3.30539 14.03102,12.52528 24.48737,18.02564 6.49098,3.41445 7.554,3.6395 9.89476,2.09474 1.50677,-0.99438 2.78645,-3.36363 3.00784,-5.56886 z m 141.95972,-5.07428 c 16.60139,-3.49284 34.88042,-8.82093 47.23838,-13.76934 18.86332,-7.55332 46.27206,-23.65946 54.19724,-31.84781 3.80109,-3.92731 4.36319,-5.36429 4.78649,-12.23638 0.4062,-6.5945 0.0333,-8.43724 -2.43598,-12.03723 -4.67807,-6.82029 -8.5264,-8.9236 -18.61406,-10.17358 -14.2336,-1.7637 -24.95431,-5.53918 -35.21381,-12.40116 -9.86877,-6.60064 -16.3151,-14.1954 -38.93645,-45.87313 l -10.43283,-14.60956 9.43938,-9.52924 9.43937,-9.52925 24.25732,15.54179 c 31.01678,19.87258 40.31443,24.48843 47.48322,23.57314 11.64081,-1.48625 21.35707,-9.52461 33.48622,-27.70353 12.91328,-19.35412 26.27338,-47.90156 33.54916,-71.68676 l 3.20238,-10.46883 -0.66362,15.59074 c -1.48344,34.85185 -12.45478,67.27591 -35.63762,105.32133 -11.05038,18.13482 -11.80187,21.30728 -5.73404,24.20681 3.18021,1.51967 3.93452,1.44486 6.85993,-0.68032 8.12256,-5.90071 29.34339,-43.79513 37.45491,-66.88395 14.92114,-42.47183 16.93775,-92.2455 5.56776,-137.42307 -8.88977,-35.32268 -31.93193,-79.57367 -45.85672,-88.0649 -4.62289,-2.81899 -14.35707,-3.1278 -19.19807,-0.60902 -6.97659,3.62991 -8.74437,7.00258 -12.57489,23.99099 -4.23482,18.78148 -8.92796,29.09699 -17.39499,38.23419 -5.11483,5.51964 -32.56677,26.81428 -48.96599,37.98319 l -5.72132,3.89657 -9.44475,-9.5864 -9.44475,-9.5864 16.74133,-26.19244 c 20.53791,-32.13236 21.698,-34.44095 21.698,-43.17935 0,-10.20717 -4.52769,-18.33342 -14.79721,-26.5578 -22.80876,-18.26649 -50.53387,-32.713527 -80.61814,-42.008627 l -11.22534,-3.46828 7.51628,-0.0787 c 19.30414,-0.20218 49.29172,6.29045 72.05365,15.60039 15.95451,6.525607 22.38702,9.976337 40.89467,21.938007 7.26016,4.69231 14.2318,8.53148 15.49253,8.53148 3.24978,0 6.85408,-3.63272 6.85408,-6.9081 0,-8.53781 -38.61212,-31.811257 -70.38416,-42.424037 -25.59834,-8.55059 -38.24321,-10.69937 -67.21397,-11.42186 -29.34112,-0.73173 -41.98084,0.43594 -64.65609,5.97304 -19.62429,4.79207 -35.74421,10.89075 -54.68122,20.68764 -20.21137,10.456157 -33.92,20.105457 -36.60644,25.766717 -2.75475,5.80521 -2.63256,15.39929 0.26516,20.81865 3.18704,5.96045 7.98758,8.43586 19.45196,10.03041 19.80891,2.75517 34.90504,10.25702 47.01871,23.36546 7.19963,7.79084 32.69157,42.21842 35.09755,47.40021 1.19925,2.58284 0.44508,3.75145 -7.73658,11.98809 l -9.06535,9.12625 -24.52433,-15.63666 c -33.49475,-21.3562 -36.15385,-22.68299 -45.46059,-22.68299 -9.85555,0 -16.66071,3.29683 -24.04514,11.64893 -16.75025,18.94524 -33.756631,51.47934 -44.438771,85.01368 l -3.57576,11.22533 0.66689,-15.59074 c 1.49958,-35.05774 13.65058,-70.0362 37.557991,-108.11628 8.93585,-14.23315 9.11066,-20.35144 0.58147,-20.35144 -3.73293,0 -8.08317,4.37017 -15.60966,15.68116 -14.814521,22.26363 -28.742111,56.29072 -34.311161,83.82706 -7.70589,38.102 -4.7773,82.74376 7.98376,121.69981 7.36891,22.4953 28.129091,60.73952 37.981561,69.96931 3.30399,3.09518 5.17516,3.76059 11.70632,4.16287 6.57563,0.40501 8.43614,0.0288 12.0717,-2.44103 6.29835,-4.27879 8.52223,-9.06524 11.25644,-24.22725 4.83745,-26.82503 12.38579,-36.34442 50.55424,-63.75505 l 21.19951,-15.22441 9.51119,9.42832 9.5112,9.42832 -16.25611,25.12861 c -19.13122,29.57295 -22.07,35.38657 -22.08661,43.6928 -0.0282,14.08399 5.9547,22.21197 26.84209,36.46606 20.34281,13.88246 38.66784,22.79187 65.44292,31.81756 l 14.34349,4.83509 -14.34349,-0.58771 c -16.86478,-0.69102 -32.09652,-3.76275 -52.52223,-10.59201 -17.77698,-5.94365 -31.56771,-12.70782 -51.89731,-25.45487 -8.35353,-5.23784 -16.29973,-9.52334 -17.65823,-9.52334 -2.91663,0 -6.38995,3.14382 -6.38995,5.78376 0,5.29315 3.76141,8.9754 18.85269,18.45591 29.07519,18.26535 58.79589,29.66667 91.52977,35.11221 15.9165,2.64784 62.63386,1.56851 78.73482,-1.81903 z M 528.24843,419.7181 c 6.60788,-7.05199 16.67447,-24.0342 16.06998,-27.10986 -0.22863,-1.16322 -1.94766,-3.25765 -3.82007,-4.65428 -2.87749,-2.14631 -3.84272,-2.30424 -6.2363,-1.02044 -3.73302,2.0022 -20.91716,28.34154 -20.91716,32.06119 0,2.98639 4.13304,6.7811 7.3857,6.7811 1.01289,0 4.39592,-2.72597 7.51785,-6.05771 z m 23.08898,-42.1156 c 2.84738,-1.09265 5.91596,-7.6579 11.00443,-23.5441 6.79848,-21.22479 10.86191,-45.2969 10.84286,-64.23386 -0.0109,-10.79314 -1.85612,-14.34349 -7.45493,-14.34349 -5.42739,0 -7.43544,3.51793 -7.4754,13.09623 -0.0809,19.40019 -4.36161,42.74897 -11.98612,65.37786 -3.01603,8.95124 -5.48367,16.98617 -5.48367,17.85539 0,2.13488 4.56178,6.56943 6.75792,6.56943 0.97288,0 2.68059,-0.34986 3.79491,-0.77746 z M 44.826249,326.9305 c 1.15856,-1.85185 1.99262,-8.32112 2.45229,-19.0207 0.84577,-19.68667 4.0524,-35.74682 11.56408,-57.9178 6.2324,-18.39516 6.19371,-21.67992 -0.27444,-23.30333 -6.45088,-1.61906 -8.94377,2.01721 -15.92124,23.22356 -6.08692,18.49977 -9.56049,37.77768 -10.39561,57.69446 -0.64565,15.39809 -0.48865,17.41356 1.53017,19.64433 3.08253,3.40616 8.8174,3.23974 11.04475,-0.32052 z m 25.81936,-109.48867 c 2.39349,-1.28095 15.07737,-19.27859 19.13303,-27.14857 2.41749,-4.69112 1.7236,-8.36895 -1.94987,-10.33493 -5.69706,-3.04898 -11.40671,2.21087 -22.6334,20.85031 -5.46877,9.0797 -5.70995,11.88339 -1.31932,15.33706 3.8199,3.00474 3.64101,2.97049 6.76956,1.29613 z M 423.5422,89.015773 c 3.30369,-3.30369 3.14743,-5.26897 -0.79109,-9.94962 -5.74731,-6.8303 -25.0097,-18.73735 -30.31196,-18.73735 -3.30443,0 -6.79502,5.40015 -5.87081,9.08247 0.47777,1.90364 5.23012,5.82926 14.16915,11.70428 17.67356,11.61561 18.72504,11.97987 22.80471,7.90022 z m -48.10858,-28.15243 c 2.08314,-2.08315 2.55064,-6.40496 0.96304,-8.90302 -1.28627,-2.02395 -12.34603,-6.83029 -24.68981,-10.72969 -15.8708,-5.01358 -35.84299,-8.40815 -54.194,-9.21106 -19.77628,-0.86527 -22.39453,-0.11054 -22.39453,6.45535 0,6.55176 3.29898,8.13402 16.95921,8.13402 15.82216,0 39.03557,4.20796 58.38833,10.5842 18.10521,5.96521 22.08738,6.55058 24.96776,3.6702 z"
     id="path18" />
  <path
     style="fill:#800080;fill-opacity:1;stroke:#6400ba;stroke-width:0"
     d="m 289.99732,348.06802 c -13.01571,-3.69318 -24.89008,-14.01526 -30.88043,-26.84355 -2.84403,-6.09045 -3.30715,-8.73578 -3.31822,-18.95357 -0.0118,-10.91326 0.31857,-12.54844 4.07886,-20.18667 4.81457,-9.77979 13.81381,-18.52958 23.97161,-23.30714 5.882,-2.7665 8.54906,-3.22485 18.70889,-3.21521 15.49171,0.0147 24.31697,3.74023 34.23383,14.45163 9.29804,10.043 12.44606,18.36048 12.45482,32.90725 0.006,10.08407 -0.39821,12.06088 -3.97638,19.44368 -4.78249,9.86767 -13.74981,18.71485 -23.48768,23.17299 -8.33998,3.81817 -23.10478,4.99367 -31.7853,2.53059 z"
     id="path24" />
  <path
     style="fill:#41014d;fill-opacity:1;stroke:#6400ba;stroke-width:0"
     d="m 290.08544,533.49013 c -12.82,-1.71865 -36.0144,-7.14673 -47.46865,-11.10886 -22.62792,-7.8272 -56.39893,-25.7407 -66.34378,-35.19142 -3.80043,-3.61161 -4.43644,-7.8884 -1.5316,-10.2992 1.58297,-1.31375 3.49973,-0.58118 11.53715,4.40939 33.80256,20.98857 49.08231,27.9254 76.9908,34.95298 16.77418,4.22387 36.74521,6.80903 52.60152,6.80903 9.76861,0 12.15223,-1.65257 4.4606,-3.09253 -10.70317,-2.00375 -39.6741,-12.52171 -54.89059,-19.92816 -26.07995,-12.69408 -49.52744,-29.72923 -54.85709,-39.85495 -2.80052,-5.32065 -2.6309,-18.76177 0.30858,-24.45344 1.23405,-2.38947 9.73516,-15.96056 18.89135,-30.15799 9.1562,-14.19742 16.64763,-26.27705 16.64763,-26.84361 0,-0.56657 -4.63046,-5.6025 -10.2899,-11.19098 l -10.28989,-10.16087 -19.50925,13.97803 c -41.33732,29.61743 -48.62269,38.16281 -53.07443,62.25357 -3.46444,18.74798 -5.01237,22.94643 -9.80908,26.60506 -6.27853,4.78887 -14.70301,5.41202 -20.50614,1.5168 -10.3859,-6.97128 -33.763041,-49.69296 -41.736731,-76.27378 -8.05287,-26.8448 -9.96257,-40.3943 -9.96313,-70.68948 -3.8e-4,-20.34751 0.53145,-29.67326 2.20474,-38.6608 6.28888,-33.77881 21.71346,-70.87543 39.545311,-95.10777 5.2874,-7.18524 6.7503,-8.419 9.98258,-8.419 7.15211,0 6.1061,3.5526 -7.52832,25.56882 -12.26216,19.80034 -24.675011,50.96728 -29.308001,73.5883 -3.40564,16.62838 -5.74832,54.9344 -3.19989,52.32254 0.63587,-0.6517 2.64605,-6.51693 4.46708,-13.03386 9.8546,-35.26683 30.208801,-74.94182 47.859831,-93.28981 7.29717,-7.58529 12.66057,-10.23273 20.73031,-10.23273 7.35769,0 12.61423,2.70798 43.91806,22.62491 13.8658,8.82208 25.6954,16.04014 26.28797,16.04014 1.47893,0 20.21888,-19.37008 20.21888,-20.89875 0,-1.44061 -11.60859,-17.99287 -26.85424,-38.2905 -17.94029,-23.88518 -29.89558,-31.27429 -58.48926,-36.14996 -12.6208,-2.15205 -17.20373,-5.26226 -19.61551,-13.31208 -3.18158,-10.61916 1.51305,-18.10514 18.01705,-28.72972 25.22348,-16.237797 53.46872,-27.624837 85.07107,-34.296317 14.85739,-3.13651 18.56298,-3.42734 44.27771,-3.4751 24.49421,-0.0455 29.88755,0.31467 42.40682,2.83191 34.41735,6.92026 66.69227,20.71973 91.91069,39.297347 9.73481,7.17133 11.32729,9.82903 7.92694,13.22939 -3.10588,3.10587 -3.74486,2.86125 -18.65288,-7.14102 -31.96462,-21.446107 -68.87481,-33.968947 -107.8003,-36.574337 -26.17773,-1.75215 -27.42359,-0.88232 -7.29927,5.09616 33.82783,10.04948 68.59023,28.169567 87.30699,45.509247 9.88559,9.15826 11.89724,12.95886 11.89724,22.47742 0,9.1099 0.12283,8.86477 -21.65524,43.2172 l -17.11872,27.00284 10.75201,10.66365 10.75203,10.66365 8.10718,-5.7843 c 37.48174,-26.74244 49.72376,-37.36677 56.42498,-48.96889 3.51209,-6.08062 7.04833,-17.34566 10.3624,-33.0104 2.47977,-11.7212 6.9327,-17.33696 14.93786,-18.83874 11.55494,-2.16772 19.48281,4.90918 34.09174,30.43238 30.38144,53.07926 39.10666,117.63046 23.88139,176.67995 -5.78903,22.45207 -17.65008,48.92628 -31.47786,70.25945 -9.95531,15.35882 -13.16668,17.77688 -17.65211,13.29145 -2.44437,-2.44436 -2.0414,-3.41934 8.23295,-19.92006 16.1399,-25.92086 26.65781,-51.05079 32.19573,-76.92368 3.26262,-15.2428 6.01089,-51.60988 4.04848,-53.5723 -1.04477,-1.04476 -1.75335,-10e-4 -2.75114,4.05231 -9.20184,37.38088 -33.44064,85.99215 -51.12676,102.53545 -10.79505,10.09749 -19.28196,11.93179 -30.66985,6.62875 -3.43887,-1.60139 -17.84479,-10.29555 -32.01316,-19.32035 -14.16838,-9.02478 -26.24072,-16.40871 -26.82743,-16.40871 -0.5867,0 -5.64708,4.63046 -11.24527,10.2899 l -10.17852,10.28989 12.70058,17.69329 c 6.98533,9.73132 16.40593,22.40172 20.93469,28.15646 13.26862,16.86054 28.51795,25.4231 50.69536,28.46565 15.18036,2.08263 21.39599,7.12677 22.42771,18.2007 0.45274,4.85944 -0.007,6.85746 -2.38951,10.3828 -6.56583,9.71565 -44.69836,31.31308 -70.26592,39.79708 -6.84394,2.271 -20.30126,5.76475 -29.90516,7.76387 -15.05719,3.13427 -20.89654,3.70205 -42.40682,4.12335 -13.71985,0.26871 -26.90962,0.2252 -29.31059,-0.0967 z m 100.40438,-22.90132 c 17.32361,-6.19482 44.5836,-20.29202 57.68575,-29.83152 4.42485,-3.22168 5.30085,-4.55436 5.30085,-8.06435 0,-2.31267 -0.70158,-4.77056 -1.55907,-5.46198 -0.85749,-0.6914 -5.76858,-1.94694 -10.91352,-2.79008 -25.08041,-4.11008 -41.64585,-13.15972 -56.02382,-30.60561 -4.7822,-5.80261 -14.35903,-18.34012 -21.28186,-27.86111 -6.92281,-9.52099 -13.63399,-18.25847 -14.91374,-19.41662 -2.19651,-1.98782 -3.07649,-1.84958 -15.71531,2.46896 -22.46443,7.67582 -43.59976,7.26481 -65.38172,-1.27148 -9.83027,-3.85245 -11.45143,-3.89181 -13.69057,-0.33243 -11.51559,18.30542 -30.76257,49.89384 -32.62534,53.54517 -5.73057,11.23283 -1.14984,18.73246 20.23062,33.12181 25.78837,17.35595 58.44965,30.77009 90.26654,37.07293 28.26282,5.59877 41.72862,5.46698 58.62119,-0.57369 z M 136.98527,451.03282 c 1.07064,-1.20049 2.87269,-7.16402 4.00455,-13.25228 2.70261,-14.53739 6.86698,-25.32209 13.81123,-35.76772 7.04224,-10.59304 13.03902,-16.0085 37.74848,-34.08911 10.7702,-7.88088 21.50916,-15.95588 23.86434,-17.94446 l 4.28215,-3.61561 -2.77662,-6.84113 c -9.74137,-24.00121 -9.92625,-49.62747 -0.52743,-73.10532 2.26115,-5.64825 2.88615,-8.6804 2.0594,-9.99107 -0.65284,-1.03498 -14.0319,-9.93982 -29.73124,-19.78857 -25.82165,-16.19881 -29.08244,-17.9068 -34.18663,-17.9068 -5.2357,0 -6.14118,0.51714 -12.56348,7.17516 -28.35812,29.39901 -52.606221,93.68198 -52.809781,140.00145 -0.0488,11.10191 0.46196,14.6157 3.35398,23.0743 6.803971,19.90027 22.450911,49.27537 31.700531,59.5136 4.66543,5.16406 8.66006,6.02524 11.77052,2.53756 z m 323.39486,-70.45745 c 11.23013,-9.88517 27.64471,-38.07662 38.65574,-66.3899 9.23179,-23.73824 15.80033,-55.52677 15.98704,-77.36946 0.099,-11.58411 -0.2334,-13.36108 -4.66629,-24.94519 -8.67852,-22.6788 -28.45824,-57.64378 -33.76005,-59.67827 -6.64167,-2.54865 -9.96941,0.29149 -11.8346,10.10054 -5.30415,27.89463 -13.25793,43.46063 -28.9677,56.69149 -5.08748,4.28471 -43.03535,32.58312 -50.09374,37.3558 -0.72084,0.48742 0.72705,6.50873 3.59902,14.96712 4.63907,13.66285 4.80503,14.73319 4.80503,30.98963 0,16.24989 -0.16745,17.33113 -4.79406,30.95659 -4.06905,11.98345 -4.53101,14.35988 -3.05465,15.71405 2.51918,2.31067 46.47964,30.31237 53.18649,33.87843 8.68372,4.61718 13.73494,4.06934 20.93777,-2.27083 z m -137.19255,0.91195 c 13.86271,-3.50898 25.18384,-10.20481 36.83839,-21.78787 16.71131,-16.60878 23.91862,-33.86511 23.97477,-57.40232 0.14423,-60.45711 -60.86733,-99.01786 -116.8892,-73.87674 -13.54077,6.07674 -27.38884,19.0766 -35.73463,33.54583 -14.37141,24.91597 -13.77964,58.11907 1.48778,83.47633 5.4428,9.03982 17.60883,21.16421 26.79278,26.70111 3.98245,2.40097 11.75634,5.89694 17.27532,7.7688 8.60838,2.91971 12.08008,3.40718 24.42775,3.42997 8.80167,0.0163 17.28117,-0.70444 21.82704,-1.85511 z M 267.11673,216.97291 c 21.83642,-8.87294 44.84676,-9.09519 69.07017,-0.66715 5.80502,2.01974 10.93297,3.67225 11.39545,3.67225 0.89682,0 15.06476,-21.39029 29.6638,-44.78538 9.44201,-15.13093 10.59246,-19.37562 7.08812,-26.15227 -2.53187,-4.8961 -10.32173,-11.61629 -23.57312,-20.33615 C 331.0057,109.12409 295.58146,96.053203 258.0524,90.806563 c -26.2976,-3.67645 -36.76995,-1.56417 -68.37135,13.790557 -16.1124,7.82882 -29.86471,16.00114 -35.23508,20.93847 -3.19687,2.9391 -3.70643,8.5505 -1.02036,11.23657 0.98228,0.98228 6.90727,2.72292 13.16665,3.86809 20.35613,3.7242 35.32761,10.99704 47.26775,22.96172 5.55942,5.57084 21.41881,26.04765 34.17445,44.12423 6.26552,8.87917 9.22297,12.25181 10.74354,12.25181 0.51872,0 4.27115,-1.35229 8.33873,-3.0051 z"
     id="path25" />
  <path
     style="fill:#41014d;fill-opacity:1;stroke:#6400ba;stroke-width:0"
     d="m 544.96698,374.52446 -2.60823,-2.60823 6.019,-18.32302 c 6.94979,-21.15653 9.43231,-33.97634 11.10097,-57.32562 0.65669,-9.18895 1.83928,-17.48472 2.62798,-18.43505 1.91301,-2.30504 5.4296,-2.18881 7.45052,0.24625 2.26927,2.73431 1.85157,25.1787 -0.7776,41.78351 -3.43055,21.66595 -12.41057,50.23857 -17.338,55.166 -2.69885,2.69885 -3.32031,2.65049 -6.47464,-0.50384 z"
     id="path26" />
  <path
     style="fill:#41014d;fill-opacity:1;stroke:#6400ba;stroke-width:0"
     d="m 516.02584,421.16423 c -0.68356,-1.22145 -0.73853,-3.29076 -0.12995,-4.89145 1.70738,-4.49076 17.5721,-26.80985 19.61368,-27.59328 2.62596,-1.00767 5.82295,1.29416 6.30456,4.53928 0.43287,2.91666 -8.74896,18.67243 -15.09077,25.89535 -4.01752,4.5757 -8.774,5.48725 -10.69752,2.0501 z"
     id="path27" />
  <path
     style="fill:#41014d;fill-opacity:1;stroke:#6400ba;stroke-width:0"
     d="m 295.6981,570.33538 c -18.09579,-1.88243 -45.26243,-8.76889 -59.01961,-14.96086 -7.11612,-3.20289 -7.84326,-3.87243 -7.48356,-6.89071 0.74545,-6.25499 3.05397,-6.26976 21.75122,-0.13919 21.42,7.02332 33.2114,9.31284 56.47,10.96469 9.95446,0.70698 18.82697,1.88956 19.71668,2.62795 2.19522,1.82187 2.03709,5.42851 -0.34233,7.80793 -2.19813,2.19813 -13.56175,2.41383 -31.0924,0.59019 z"
     id="path28" />
  <path
     style="fill:#41014d;fill-opacity:1;stroke:#6400ba;stroke-width:0"
     d="m 195.67608,532.72831 c -14.18966,-9.51968 -16.22982,-12.34322 -11.80928,-16.34376 2.31396,-2.0941 2.96122,-1.80114 17.51654,7.92823 14.95871,9.99901 17.08599,12.49254 13.61708,15.96145 -2.73917,2.73916 -5.74102,1.56698 -19.32434,-7.54592 z"
     id="path29" />
  <path
     style="fill:#41014d;fill-opacity:1;stroke:#6400ba;stroke-width:0"
     d="m 34.863289,325.30595 c -4.246,-6.4802 0.49816,-46.57717 8.44957,-71.41467 6.19216,-19.34221 9.12579,-25.18246 12.64948,-25.18246 1.64642,0 3.93679,1.04235 5.08973,2.31634 1.96712,2.17364 1.94567,2.66764 -0.34821,8.01903 -8.02956,18.73223 -13.33256,42.31812 -15.20316,67.61835 -0.76079,10.28989 -1.95522,19.41047 -2.65429,20.26796 -2.06804,2.53668 -5.74715,1.78799 -7.98312,-1.62455 z"
     id="path30" />
  <path
     style="fill:#41014d;fill-opacity:1;stroke:#6400ba;stroke-width:0"
     d="m 63.895529,213.63117 c -1.76019,-2.51303 -1.70486,-3.18303 0.64962,-7.86634 4.52756,-9.00576 16.27308,-24.45187 18.59369,-24.45187 8.60222,0 7.99386,4.25042 -2.95797,20.66602 -9.70145,14.54143 -12.73923,16.71497 -16.28534,11.65219 z"
     id="path31" />
  <path
     style="fill:#41014d;fill-opacity:1;stroke:#6400ba;stroke-width:0"
     d="m 354.60365,56.460233 c -20.00933,-6.74984 -34.31316,-9.59008 -56.41103,-11.20126 -20.09572,-1.4652 -22.71809,-2.41353 -21.38304,-7.7328 1.0441,-4.16005 5.75711,-4.77319 26.14474,-3.4013 19.56555,1.31656 36.49313,4.79351 54.90482,11.27753 13.22793,4.65846 18.2872,7.58022 18.2872,10.56099 0,1.73678 -4.03994,5.64965 -5.71088,5.53125 -0.63198,-0.0448 -7.75629,-2.31026 -15.83181,-5.03441 z"
     id="path32" />
  <path
     style="fill:#41014d;fill-opacity:1;stroke:#6400ba;stroke-width:0"
     d="m 407.45766,83.409193 c -13.90678,-8.58925 -18.83873,-12.85169 -18.83873,-16.28139 0,-4.16941 3.4746,-5.71376 8.29509,-3.68689 5.48743,2.30729 20.49513,12.34737 23.94375,16.01826 1.7607,1.87418 2.72793,4.22043 2.47535,6.00457 -0.6986,4.93486 -5.58226,4.30284 -15.87546,-2.05455 z"
     id="path33" />
  <path
     style="fill:#41014d;fill-opacity:1;stroke:#6400ba;stroke-width:0"
     d="m 284.47277,359.51286 c -17.00608,-5.83833 -31.80716,-19.65679 -38.24848,-35.70921 -2.44748,-6.09936 -2.87211,-9.38558 -2.85956,-22.13015 0.0139,-14.09595 0.23749,-15.43899 3.84186,-23.0743 10.6705,-22.60386 31.16191,-36.17052 54.63281,-36.17052 23.62498,0 44.6368,13.13806 55.20408,34.51747 4.75016,9.61039 4.75937,9.65934 4.75937,25.28538 0,15.56714 -0.0267,15.71103 -4.69082,25.25343 -7.71999,15.79455 -20.8632,27.27096 -36.91193,32.23085 -10.73199,3.31674 -25.72313,3.23158 -35.72733,-0.20295 z m 34.76643,-11.10938 c 10.93561,-3.37767 21.47122,-12.91476 27.26264,-24.6788 3.82144,-7.76245 4.07568,-9.09907 4.07568,-21.42755 0,-12.29475 -0.2614,-13.67966 -4.02506,-21.32474 -4.86008,-9.87223 -13.11281,-18.3133 -22.61081,-23.12684 -6.47755,-3.28279 -8.1365,-3.56791 -20.75999,-3.56791 -12.29453,0 -14.46525,0.34932 -20.89489,3.36247 -9.4635,4.43492 -19.59667,14.18332 -24.03493,23.12227 -4.97071,10.01134 -5.8659,27.4511 -1.94357,37.86357 9.78355,25.972 35.64017,38.20678 62.93093,29.77753 z"
     id="path34" />
  <path
     style="fill:#41014d;fill-opacity:1;stroke:#6400ba;stroke-width:0"
     d="m 282.98278,344.13573 c -10.00177,-5.04265 -17.85334,-12.82286 -22.82274,-22.61531 -2.5005,-4.92738 -3.19654,-8.41173 -3.55483,-17.79535 -0.43158,-11.30335 -0.30445,-11.9537 4.06457,-20.79383 5.0245,-10.16638 12.70083,-17.97004 22.66496,-23.04093 5.40419,-2.75027 7.67216,-3.11332 19.22329,-3.07722 15.06614,0.0471 21.04638,2.05589 29.88062,10.03709 11.91939,10.76846 16.95746,23.0772 15.99689,39.08274 -0.97388,16.22743 -10.53293,30.34815 -25.54831,37.74019 -7.0553,3.47332 -9.84259,4.11657 -19.57868,4.51837 -10.99428,0.45372 -11.63517,0.32584 -20.32577,-4.05575 z"
     id="path35" />
  <path
     style="fill:#4b0074;fill-opacity:1;stroke:#6400ba;stroke-width:0"
     d="m 283.24075,380.1895 c -11.93581,-3.01488 -24.78167,-10.07862 -34.21996,-18.81702 -16.78763,-15.54278 -24.95365,-32.93888 -25.98182,-55.34916 -0.7284,-15.87653 1.15595,-24.59584 8.62221,-39.89671 4.07129,-8.34346 7.32447,-12.75529 15.27256,-20.71205 15.67406,-15.69116 33.19299,-22.90516 55.62429,-22.90516 22.71097,0 39.74695,7.16829 56.12667,23.61664 17.64606,17.71998 24.46447,35.20664 23.3613,59.91287 -0.4551,10.19222 -1.34805,15.1647 -4.02692,22.42446 -8.93416,24.21168 -26.36924,41.19681 -51.41975,50.09275 -9.69446,3.4427 -32.75616,4.31148 -43.35858,1.63338 z m 36.12381,-18.24649 c 18.36898,-4.71237 34.62899,-19.86471 41.63753,-38.80107 3.56695,-9.63754 3.74695,-29.6402 0.36453,-40.50796 -10.93512,-35.13459 -53.70291,-52.52882 -87.37844,-35.53798 -24.15276,12.18617 -37.7461,40.7081 -32.10182,67.35692 3.39492,16.02873 10.92633,27.9375 23.54162,37.22435 15.50831,11.41656 34.99399,15.12527 53.93658,10.26574 z"
     id="path39" />
</svg>
